<?xml version="1.0" encoding="UTF-8" standalone="no"?>
<!-- Created with Inkscape (http://www.inkscape.org/) -->

<svg
   width="46.55735mm"
   height="33.68364mm"
   viewBox="0 0 46.55735 33.68364"
   version="1.1"
   id="svg1"
   xml:space="preserve"
   inkscape:version="1.3.1 (9b9bdc1480, 2023-11-25, custom)"
   sodipodi:docname="simbora.svg"
   xmlns:inkscape="http://www.inkscape.org/namespaces/inkscape"
   xmlns:sodipodi="http://sodipodi.sourceforge.net/DTD/sodipodi-0.dtd"
   xmlns="http://www.w3.org/2000/svg"
   xmlns:svg="http://www.w3.org/2000/svg"><sodipodi:namedview
     id="namedview1"
     pagecolor="#505050"
     bordercolor="#eeeeee"
     borderopacity="1"
     inkscape:showpageshadow="0"
     inkscape:pageopacity="0"
     inkscape:pagecheckerboard="0"
     inkscape:deskcolor="#505050"
     inkscape:document-units="mm"
     inkscape:zoom="4.2482356"
     inkscape:cx="62.731925"
     inkscape:cy="57.317913"
     inkscape:window-width="1920"
     inkscape:window-height="1043"
     inkscape:window-x="0"
     inkscape:window-y="0"
     inkscape:window-maximized="1"
     inkscape:current-layer="layer1" /><defs
     id="defs1" /><g
     inkscape:label="Camada 1"
     inkscape:groupmode="layer"
     id="layer1"
     transform="translate(-102.05394,-90.783358)"><path
       style="fill:#130c1c;stroke-width:0.0457201;fill-opacity:1"
       d="m 124.63798,123.18918 c -0.059,-0.20419 -0.0822,-0.42805 -0.0628,-0.60897 0.0349,-0.32735 0.16371,-0.5904 0.3653,-0.74584 0.12866,-0.0992 0.23937,-0.15312 0.85484,-0.41622 0.54352,-0.23271 1.37526,-0.55809 1.81382,-0.71031 0.0821,-0.0286 0.0888,-0.0322 0.0631,-0.0391 -0.0156,-0.004 -0.0407,-0.002 -0.0558,0.004 -0.0558,0.0231 -0.12217,0.0217 -0.14696,-0.003 -0.04,-0.04 -0.0991,-0.14321 -0.14372,-0.25087 -0.0476,-0.11477 -0.0445,-0.144 0.0184,-0.17003 0.12881,-0.0533 0.32629,0.0924 0.41768,0.3082 l 0.0342,0.0808 0.26542,-0.10997 c 0.14598,-0.0605 0.346,-0.15013 0.44449,-0.19922 0.33263,-0.16578 0.47698,-0.21261 0.67537,-0.21905 0.16987,-0.006 0.36366,0.0369 0.53509,0.11709 0.21661,0.10138 0.44642,0.30975 0.60755,0.55088 0.084,0.12583 0.20635,0.42028 0.2338,0.56273 0.0947,0.49338 -0.045,0.92358 -0.39544,1.21734 -0.14531,0.12179 -0.2506,0.17453 -0.72218,0.36182 -0.23431,0.0932 -0.46295,0.18867 -0.50787,0.2126 l -0.0818,0.0433 0.0343,0.0994 c 0.0388,0.11241 0.0475,0.19407 0.0322,0.29907 -0.017,0.11632 -0.1179,0.21891 -0.18713,0.19022 -0.0236,-0.01 -0.0336,-0.0296 -0.0812,-0.15949 -0.0783,-0.21394 -0.0771,-0.26929 0.007,-0.31818 0.0602,-0.035 0.0872,-0.0558 0.0779,-0.0597 -0.004,-0.001 -0.21931,0.0946 -0.47872,0.21378 -0.65767,0.3022 -1.98116,0.82979 -2.18997,0.873 -0.30805,0.0637 -0.69949,-0.0634 -0.95383,-0.30966 -0.20304,-0.19658 -0.38445,-0.5091 -0.4727,-0.81432 z m 1.36692,-0.031 c 0.0831,0.13046 0.17082,0.24197 0.29623,0.37663 0.14331,0.15381 0.21434,0.21653 0.22946,0.20259 0.006,-0.006 0.0483,-0.0421 0.0934,-0.0807 0.0452,-0.0387 0.0844,-0.075 0.0872,-0.0807 0.003,-0.006 -0.0361,-0.0817 -0.0862,-0.16891 -0.15458,-0.26882 -0.30937,-0.60544 -0.41548,-0.9036 -0.051,-0.14332 -0.11273,-0.33182 -0.13721,-0.4189 -0.0707,-0.25153 -0.0456,-0.22525 -0.20757,-0.2173 -0.0768,0.004 -0.1407,0.009 -0.1419,0.0121 -0.001,0.003 -0.004,0.0657 -0.006,0.13961 -0.004,0.14821 0.0186,0.41302 0.0449,0.5344 0.0461,0.21245 0.1369,0.43893 0.24254,0.60481 z m 0.44054,-1.70333 c 0.0934,-0.0212 0.18452,-0.0529 0.35471,-0.12358 0.2069,-0.0859 0.2433,-0.10456 0.37647,-0.19368 0.0865,-0.0579 0.13962,-0.0995 0.12852,-0.10067 -0.0363,-0.004 -0.35296,0.0938 -0.57548,0.17783 -0.20821,0.0786 -0.55394,0.23937 -0.6181,0.28749 -0.0292,0.0218 0.12587,-9e-5 0.33392,-0.0473 z m 0.81574,2.21983 c 0.12369,-0.0413 0.2837,-0.10454 0.41865,-0.16545 0.21645,-0.0978 0.50987,-0.2525 0.53267,-0.28099 0.007,-0.009 -0.058,-7e-4 -0.15585,0.0189 -0.22281,0.0446 -0.48439,0.14209 -0.67152,0.25021 -0.17662,0.10208 -0.38246,0.24653 -0.34939,0.24527 0.0139,-4.3e-4 0.11536,-0.031 0.22548,-0.0678 z m 0.21148,-2.39425 c 0.10276,0.14916 0.23621,0.38249 0.33781,0.59059 0.14646,0.29994 0.27848,0.70723 0.34127,1.05248 0.0113,0.0626 0.0253,0.11572 0.031,0.11812 0.006,0.002 0.13453,-0.0111 0.2864,-0.03 l 0.27611,-0.0344 0.0419,-0.0973 c 0.11529,-0.26768 0.12753,-0.62032 0.0337,-0.97116 -0.0471,-0.17594 -0.1662,-0.42396 -0.27025,-0.56247 -0.10555,-0.14046 -0.19929,-0.23523 -0.31521,-0.31859 -0.10251,-0.0737 -0.26297,-0.16011 -0.32955,-0.17745 l -0.0464,-0.0121 -0.23122,0.16095 c -0.14227,0.0991 -0.22911,0.16602 -0.22574,0.17413 0.003,0.007 0.0346,0.0555 0.0702,0.10722 z m 1.78343,-0.96639 c 0.1335,0.0697 0.344,0.16471 0.4676,0.21101 0.1157,0.0433 0.24636,0.0796 0.25054,0.0695 0.004,-0.01 -0.15555,-0.14592 -0.22969,-0.1958 -0.0923,-0.0621 -0.25465,-0.1252 -0.3654,-0.14204 -0.1014,-0.0154 -0.22889,-0.0164 -0.2228,-0.001 0.002,0.005 0.0469,0.0315 0.0997,0.059 z m 0.94733,2.07105 c 0.12267,-0.13574 0.19668,-0.28159 0.23487,-0.46283 0.0192,-0.0911 0.0324,-0.28143 0.0199,-0.28663 -0.022,-0.009 -0.14596,0.25316 -0.25346,0.53633 -0.0412,0.10867 -0.0879,0.28206 -0.0771,0.28652 0.004,0.001 0.0379,-0.0314 0.0759,-0.0734 z"
       id="path2" /><path
       style="fill:#1c104a;fill-opacity:1;stroke:#000000;stroke-opacity:1;stroke-width:0.0999;stroke-dasharray:none"
       d="m 115.72408,105.50894 c -0.097,-0.097 -0.17639,-2.24388 -0.17639,-4.77081 0,-3.889321 0.0624,-4.618366 0.40673,-4.75049 0.2237,-0.08584 0.61065,0.02787 0.85989,0.252691 0.39447,0.355818 0.5197,0.359974 0.96676,0.03209 0.87739,-0.6435 2.89335,-0.481297 3.83173,0.308299 l 0.81405,0.684978 0.81405,-0.684978 c 1.07435,-0.904 3.2492,-0.970759 4.31493,-0.13245 1.28062,1.007333 1.48561,1.770109 1.48561,5.52805 0,2.84535 -0.0712,3.48835 -0.40025,3.61462 -0.9483,0.3639 -1.18725,-0.37263 -1.18725,-3.65957 0,-1.738 -0.11452,-3.373971 -0.25448,-3.635481 -0.13995,-0.26152 -0.6162,-0.62532 -1.05833,-0.80846 -0.94081,-0.389694 -2.23483,0.003 -2.66606,0.80846 -0.13995,0.26151 -0.25447,1.800821 -0.25447,3.420691 0,2.9633 -0.233,3.96875 -0.91973,3.96875 -0.62718,0 -0.73105,-0.47938 -0.70779,-3.26641 0.0262,-3.144581 -0.31905,-4.387851 -1.35655,-4.884471 -0.89367,-0.427756 -2.42605,-0.0249 -2.83879,0.74634 -0.14441,0.26982 -0.26255,1.903351 -0.26255,3.630061 0,2.08904 -0.10624,3.24571 -0.3175,3.45698 -0.3513,0.35129 -0.82262,0.41211 -1.09361,0.14111 z"
       id="path19" /><path
       style="fill:#1c104a;fill-opacity:1;stroke:#000000;stroke-opacity:1;stroke-width:0.0999;stroke-dasharray:none"
       d="m 105.03728,105.33447 c -1.12705,-0.41033 -2.04188,-1.34422 -1.83779,-1.87607 0.21862,-0.5697 0.88328,-0.5264 1.69267,0.11026 0.74652,0.58721 2.90246,0.73228 3.79375,0.25527 0.60155,-0.32193 0.67639,-1.37678 0.12987,-1.83035 -0.21005,-0.17432 -1.11706,-0.48845 -2.01559,-0.69806 -2.09197,-0.48803 -3.09049,-1.19497 -3.30533,-2.340151 -0.33627,-1.792504 1.15748,-3.057001 3.61318,-3.058639 1.70257,-0.0011 3.2229,0.809961 3.36497,1.795219 0.12719,0.882 -0.55321,0.96461 -1.67497,0.20337 -0.54841,-0.37216 -1.37073,-0.676661 -1.82736,-0.676661 -1.53845,0 -2.58299,1.308701 -1.65755,2.076751 0.19182,0.1592 0.9955,0.42613 1.78594,0.59318 1.65183,0.349091 2.25774,0.619231 3.0908,1.378001 0.70128,0.63874 0.80567,2.14859 0.2076,3.00246 -0.88574,1.26457 -3.42622,1.76953 -5.36019,1.06542 z"
       id="path18" /><path
       style="fill:#130c1c;fill-opacity:1"
       d="m 102.05394,110.97699 c 0,-0.14552 0.17859,-0.26458 0.39687,-0.26458 0.21828,0 0.39688,0.11906 0.39688,0.26458 0,0.14552 -0.1786,0.26459 -0.39688,0.26459 -0.21828,0 -0.39687,-0.11907 -0.39687,-0.26459 z"
       id="path17" /><path
       style="fill:#130c1c;fill-opacity:1"
       d="m 104.36904,111.58836 c -0.25466,-0.0666 -0.46302,-0.22302 -0.46302,-0.34772 0,-0.22041 1.51851,0.10833 1.79982,0.38965 0.16185,0.16185 -0.65507,0.13622 -1.3368,-0.0419 z"
       id="path16" /><path
       style="fill:#130c1c;fill-opacity:1"
       d="m 107.41175,112.77074 c -0.32742,-0.15791 -0.59531,-0.38798 -0.59531,-0.51126 0,-0.37178 0.43436,-0.25429 1.09516,0.29621 0.68066,0.56705 0.44248,0.66952 -0.49985,0.21505 z"
       id="path15" /><path
       style="fill:#130c1c;fill-opacity:1"
       d="m 109.66071,114.55693 c -0.66916,-0.92025 -0.56857,-1.12551 0.19843,-0.40494 0.65145,0.61201 0.85179,1.06631 0.46303,1.05002 -0.10915,-0.005 -0.4068,-0.29486 -0.66146,-0.64508 z"
       id="path14" /><path
       style="fill:#1c104a;fill-opacity:1;stroke:#000000;stroke-opacity:1;stroke-width:0.1;stroke-dasharray:none"
       d="m 141.16742,116.26157 c -1.18402,-0.62545 -1.91725,-1.61131 -2.3252,-3.12633 -0.36662,-1.3615 -0.18323,-2.43018 0.67246,-3.91877 1.71777,-2.98831 6.46309,-2.91219 8.2477,0.13229 0.63744,1.08745 0.73297,1.55732 0.81739,4.02051 0.0791,2.3074 0.0229,2.84948 -0.32529,3.13845 -0.60424,0.50148 -1.22138,0.16104 -1.22138,-0.67375 v -0.71589 l -0.59531,0.55767 c -1.29643,1.21444 -3.59639,1.47009 -5.27037,0.58582 z m 4.27818,-1.55733 c 1.66529,-1.14325 1.95724,-3.46196 0.63393,-5.03464 -1.79624,-2.1347 -5.28021,-1.12382 -5.80714,1.68497 -0.11591,0.61788 -0.002,1.26459 0.37147,2.10887 0.29626,0.66975 0.57511,1.21951 0.61968,1.2217 0.0446,0.002 0.55727,0.17273 1.13935,0.37896 1.1819,0.41876 2.0598,0.31493 3.04271,-0.35986 z"
       id="path13" /><path
       style="fill:#1c104a;fill-opacity:1;stroke:#000000;stroke-opacity:1;stroke-width:0.1;stroke-dasharray:none"
       d="m 133.59999,116.48805 c -0.51518,-0.51518 -0.45392,-8.77903 0.0683,-9.21243 0.53037,-0.44016 1.194,-0.14649 1.194,0.52838 v 0.54777 l 0.59004,-0.54971 c 0.7225,-0.67311 1.39588,-0.8563 2.74247,-0.74608 0.90305,0.0739 1.03311,0.16783 1.03311,0.74601 0,0.61293 -0.11129,0.67137 -1.51678,0.79653 -2.4501,0.21819 -2.68812,0.61067 -2.84884,4.6975 -0.10734,2.72945 -0.20819,3.37837 -0.53468,3.44058 -0.22131,0.0422 -0.54873,-0.0697 -0.7276,-0.24855 z"
       id="path12" /><path
       style="fill:#1c104a;fill-opacity:1;stroke:#000000;stroke-opacity:1;stroke-width:0.1;stroke-dasharray:none"
       d="m 125.20557,116.381 c -3.31947,-1.73082 -3.73894,-6.2187 -0.79138,-8.46691 1.27929,-0.97576 3.73633,-1.19438 5.1376,-0.45713 2.79287,1.46942 3.56741,5.34709 1.53125,7.66614 -0.46349,0.52789 -1.2277,1.12066 -1.69824,1.31726 -1.14638,0.47899 -3.20278,0.44978 -4.17923,-0.0594 z m 3.91617,-1.48345 c 1.46956,-0.77043 1.95181,-3.44618 0.90221,-5.00591 -1.82311,-2.70919 -6.0096,-1.30798 -6.0096,2.01139 0,2.67308 2.70046,4.25638 5.10739,2.99452 z"
       id="path11" /><path
       style="fill:#1c104a;fill-opacity:1;stroke:#000000;stroke-opacity:1;stroke-width:0.1;stroke-dasharray:none"
       d="m 114.55292,116.25447 c -1.22212,-0.62114 -1.92712,-1.46255 -2.40435,-2.86956 -0.20378,-0.60082 -0.30505,-3.55444 -0.30505,-8.89729 0,-6.756041 0.0611,-8.048628 0.39351,-8.324499 0.21642,-0.17962 0.57361,-0.257466 0.79375,-0.172993 0.34158,0.131078 0.40083,1.075782 0.40429,6.445752 0.002,3.46068 0.0915,6.15831 0.19844,5.99472 0.48074,-0.73558 2.09294,-1.42041 3.34614,-1.42137 4.71286,-0.004 6.55653,6.29396 2.63025,8.9843 -1.33518,0.91488 -3.5459,1.02895 -5.05698,0.26094 z m 4.16977,-1.55023 c 1.66528,-1.14325 1.95724,-3.46196 0.63392,-5.03464 -1.79125,-2.12877 -5.32855,-1.17887 -5.79042,1.55495 -0.51019,3.01977 2.68535,5.17617 5.1565,3.47969 z"
       id="path10" /><path
       style="fill:#130c1c;fill-opacity:1"
       d="m 111.13076,117.06241 c -0.36397,-0.96428 -0.0247,-1.0645 0.40571,-0.11984 0.36241,0.79541 0.37541,0.91359 0.10047,0.91359 -0.11361,0 -0.3414,-0.35719 -0.50618,-0.79375 z"
       id="path9" /><path
       style="fill:#130c1c;fill-opacity:1"
       d="m 112.42083,119.57595 c -0.34801,-0.76379 -0.13637,-0.8751 0.37729,-0.19843 0.40744,0.53672 0.46238,0.85989 0.1462,0.85989 -0.12216,0 -0.35773,-0.29765 -0.52349,-0.66146 z"
       id="path8" /><path
       style="fill:#130c1c;fill-opacity:1"
       d="m 114.48935,122.08949 c -0.35945,-0.27113 -0.56272,-0.5838 -0.45172,-0.6948 0.11101,-0.11101 0.45981,0.0561 0.7751,0.37143 0.74171,0.74171 0.52221,0.9612 -0.32338,0.32337 z"
       id="path7" /><path
       style="fill:#130c1c;fill-opacity:1"
       d="m 116.67217,123.61895 c -0.5324,-0.25677 -0.82521,-0.73542 -0.44989,-0.73542 0.24471,0 1.70666,0.79909 1.70666,0.93284 0,0.20653 -0.62168,0.10887 -1.25677,-0.19742 z"
       id="path6" /><path
       style="fill:#130c1c;fill-opacity:1"
       d="m 121.89769,124.21884 c 0,-0.22164 0.90184,-0.53155 1.56545,-0.53794 0.56111,-0.005 0.20146,0.24645 -0.73577,0.51525 -0.45633,0.13087 -0.82968,0.14108 -0.82968,0.0227 z"
       id="path5" /><path
       style="fill:#130c1c;fill-opacity:1"
       d="m 118.98727,124.20644 c 0,-0.33699 1.06604,-0.33699 1.5875,0 0.29521,0.19078 0.14271,0.25752 -0.59531,0.26053 -0.54571,0.002 -0.99219,-0.11501 -0.99219,-0.26053 z"
       id="path1" /><path
       style="fill:#dd4a3e;stroke-width:0.109;fill-opacity:1;stroke:#000000;stroke-opacity:1;stroke-dasharray:none"
       d="m 112.69629,95.417617 c -0.3709,-0.444995 -0.72878,-0.941564 -0.98228,-1.362925 -0.20561,-0.341754 -0.34969,-0.639181 -0.43421,-0.896332 -0.0236,-0.07174 -0.0364,-0.117803 -0.0551,-0.197338 -0.007,-0.0302 -0.0138,-0.06704 -0.0224,-0.123632 -10e-4,-0.0079 -0.004,-0.03405 -0.006,-0.05825 -0.006,-0.06934 -0.003,-0.204491 0.007,-0.278171 0.005,-0.03405 0.0131,-0.08612 0.0181,-0.110556 0.0485,-0.239246 0.15127,-0.459476 0.30294,-0.649136 0.18174,-0.227266 0.42649,-0.399107 0.7001,-0.491568 0.35972,-0.121556 0.75554,-0.103803 1.10199,0.04942 0.38317,0.169468 0.68558,0.497663 0.8211,0.891115 0.0355,0.103141 0.0572,0.195449 0.0729,0.31072 0.01,0.07306 0.0136,0.211639 0.007,0.284116 -0.004,0.04821 -0.006,0.06005 -0.0149,0.11769 -0.0545,0.337618 -0.2397,0.762297 -0.54931,1.25978 -0.23527,0.378038 -0.57259,0.83368 -0.88976,1.201866 -0.0269,0.0312 -0.0514,0.05984 -0.0544,0.0636 -0.003,0.0036 -0.006,0.0068 -0.007,0.0068 -9.1e-4,0 -0.008,-0.0078 -0.016,-0.01723 z m 0.0839,-1.861099 c 0.11716,-0.0095 0.23525,-0.04463 0.33715,-0.100365 0.10669,-0.05838 0.20172,-0.141391 0.27742,-0.242339 0.0718,-0.09578 0.12545,-0.217666 0.14938,-0.339575 0.0116,-0.05903 0.0129,-0.07566 0.0129,-0.162858 0,-0.0656 -9.1e-4,-0.08901 -0.004,-0.110556 -0.0289,-0.197012 -0.11189,-0.361698 -0.25059,-0.496949 -0.10666,-0.104018 -0.23572,-0.176472 -0.38245,-0.214709 -0.0667,-0.01739 -0.12526,-0.02419 -0.20804,-0.02419 -0.0828,0 -0.14133,0.0068 -0.20803,0.02419 -0.14673,0.03824 -0.27579,0.110691 -0.38246,0.214709 -0.13869,0.135247 -0.22184,0.300163 -0.25057,0.496949 -0.005,0.03499 -0.006,0.179366 -0.001,0.212788 0.0288,0.202741 0.11012,0.366739 0.24934,0.502908 0.043,0.04209 0.076,0.06884 0.12446,0.100916 0.10348,0.06853 0.20688,0.109339 0.33167,0.130897 0.056,0.0097 0.14323,0.01316 0.20493,0.0082 z"
       id="path3" /><path
       style="fill:#130c1c;stroke-width:0;fill-opacity:1;stroke:none;stroke-opacity:1;stroke-dasharray:none"
       d="m 134.064,96.00672 c -0.0849,-0.301813 -0.0725,-0.674106 0.0314,-0.938116 0.0752,-0.1909 0.39326,-0.509754 2.17945,-2.183777 1.17663,-1.102732 2.16229,-1.989267 2.25332,-2.026608 0.23047,-0.09468 0.77228,-0.100711 1.03172,-0.01147 0.16446,0.05654 0.35003,0.212161 0.72491,0.607977 l 0.50387,0.531989 -2.81932,2.665845 -2.81932,2.665843 -0.51244,-0.547516 c -0.37467,-0.40015 -0.52888,-0.605756 -0.57351,-0.764151 z m 4.10956,-1.136269 2.84285,-2.64073 2.31885,2.448992 2.31883,2.448982 -0.0822,0.13229 c -0.1076,0.173202 -5.36326,5.101045 -5.49909,5.156935 -0.0934,0.0379 -0.35089,-0.22031 -2.42307,-2.431363 l -2.31855,-2.473909 z m 4.87385,5.200449 2.84286,-2.640729 0.49977,0.535832 c 0.54341,0.582736 0.63831,0.778419 0.60934,1.257274 -0.0318,0.52685 -0.0438,0.54064 -2.28539,2.641453 -2.05401,1.92502 -2.07652,1.9445 -2.39233,2.03667 -0.17524,0.0513 -0.47874,0.0654 -0.67441,0.0316 -0.35549,-0.0616 -0.35625,-0.0622 -0.89922,-0.6415 l -0.54343,-0.57984 z m -0.41429,-7.191678 c 0.33537,-0.265849 0.62329,-0.32393 0.97558,-0.196827 0.3543,0.127833 1.66417,1.525464 1.77252,1.891307 0.0942,0.318267 -0.045,0.770325 -0.31602,1.026378 l -0.20587,0.194323 -0.20497,-0.218709 c -0.20389,-0.217554 -0.20404,-0.219596 -0.0349,-0.378142 0.10526,-0.0987 0.17247,-0.231119 0.17622,-0.347722 0.006,-0.170993 -0.0547,-0.253111 -0.65438,-0.893046 -0.59973,-0.639928 -0.67778,-0.705293 -0.84877,-0.710837 -0.11649,-0.0037 -0.25311,0.05463 -0.35841,0.153318 -0.16988,0.159214 -0.17046,0.159058 -0.38072,-0.06529 l -0.21062,-0.22473 z"
       id="path4"
       sodipodi:nodetypes="sssssscccsssccccscsccccssscsscccssccssssssscc" /><path
       style="fill:#ffffff;fill-opacity:1;stroke:#000000;stroke-width:0.0111209;stroke-linecap:round;stroke-linejoin:bevel;stroke-dasharray:none;stroke-opacity:1"
       d="m 39.776341,10.2254 c -1.153403,-0.20928 -2.08187,-1.0697958 -2.38242,-2.2080563 -0.06671,-0.2526626 -0.07749,-0.3529736 -0.07739,-0.7201967 1.34e-4,-0.4816422 0.05545,-0.7774237 0.218749,-1.1696881 0.218625,-0.5251593 0.731332,-1.1080871 1.238593,-1.4082301 0.658771,-0.3897902 1.55153,-0.5134353 2.272581,-0.3147472 1.035065,0.2852155 1.848094,1.1064291 2.123082,2.1444543 0.06791,0.2563413 0.07731,0.3480255 0.07671,0.7482111 -5.55e-4,0.3702281 -0.01242,0.4998711 -0.06303,0.6887692 -0.178534,0.6663466 -0.536185,1.2226085 -1.044527,1.6245736 -0.673487,0.5325522 -1.553627,0.7616492 -2.362344,0.6149102 z"
       id="path20"
       transform="matrix(0.26458333,0,0,0.26458333,102.05394,90.783358)" /></g></svg>
